<mxfile host="65bd71144e">
    <diagram id="vYs8UwvgQ2NDb4jDfUqr" name="actor">
        <mxGraphModel dx="346" dy="433" grid="1" gridSize="10" guides="1" tooltips="1" connect="1" arrows="1" fold="1" page="1" pageScale="1" pageWidth="850" pageHeight="1100" math="0" shadow="0">
            <root>
                <mxCell id="0"/>
                <mxCell id="1" parent="0"/>
            </root>
        </mxGraphModel>
    </diagram>
    <diagram id="fxJPTXVTithkEzRg_fZR" name="use case">
        <mxGraphModel dx="931" dy="541" grid="1" gridSize="10" guides="1" tooltips="1" connect="1" arrows="1" fold="1" page="1" pageScale="1" pageWidth="850" pageHeight="1100" math="0" shadow="0">
            <root>
                <mxCell id="0"/>
                <mxCell id="1" parent="0"/>
                <mxCell id="YWpvX5drc85uGeIuZElR-6" value="JKM KTDI" style="shape=umlActor;verticalLabelPosition=bottom;verticalAlign=top;html=1;outlineConnect=0;" vertex="1" parent="1">
                    <mxGeometry x="190" y="410" width="30" height="60" as="geometry"/>
                </mxCell>
                <mxCell id="YWpvX5drc85uGeIuZElR-8" value="KTDI Admin" style="shape=umlActor;verticalLabelPosition=bottom;verticalAlign=top;html=1;outlineConnect=0;" vertex="1" parent="1">
                    <mxGeometry x="190" y="630" width="30" height="60" as="geometry"/>
                </mxCell>
                <mxCell id="YWpvX5drc85uGeIuZElR-9" value="Student" style="shape=umlActor;verticalLabelPosition=bottom;verticalAlign=top;html=1;outlineConnect=0;" vertex="1" parent="1">
                    <mxGeometry x="190" y="190" width="30" height="60" as="geometry"/>
                </mxCell>
                <mxCell id="YWpvX5drc85uGeIuZElR-15" value="" style="ellipse;whiteSpace=wrap;html=1;" vertex="1" parent="1">
                    <mxGeometry x="140" y="300" width="120" height="80" as="geometry"/>
                </mxCell>
                <mxCell id="YWpvX5drc85uGeIuZElR-16" value="View ongoing and upcoming events" style="ellipse;whiteSpace=wrap;html=1;" vertex="1" parent="1">
                    <mxGeometry x="390" y="100" width="150" height="50" as="geometry"/>
                </mxCell>
            </root>
        </mxGraphModel>
    </diagram>
    <diagram id="I_W-1Ado2UAVlXa0YNgY" name="sequence">
        <mxGraphModel dx="346" dy="433" grid="1" gridSize="10" guides="1" tooltips="1" connect="1" arrows="1" fold="1" page="1" pageScale="1" pageWidth="850" pageHeight="1100" math="0" shadow="0">
            <root>
                <mxCell id="0"/>
                <mxCell id="1" parent="0"/>
            </root>
        </mxGraphModel>
    </diagram>
    <diagram id="96eBg8_Hl_f8V-2cMZ9O" name="activity">
        <mxGraphModel dx="346" dy="433" grid="1" gridSize="10" guides="1" tooltips="1" connect="1" arrows="1" fold="1" page="1" pageScale="1" pageWidth="850" pageHeight="1100" math="0" shadow="0">
            <root>
                <mxCell id="0"/>
                <mxCell id="1" parent="0"/>
            </root>
        </mxGraphModel>
    </diagram>
</mxfile>